P2
10 10
255
0 0 0 2 4 6 8 10 12 14 2 2 2 3 5 7 9 11 13 15 4 4 4 5 6 8 10 12 14 16 6 6 6 7 8 9 11 13 15 17 8 8 8 9 10 11 12 14 16 18 10 10 10 11 12 13 14 15 17 19 12 12 12 13 14 15 16 17 18 20 14 14 14 15 16 17 18 19 20 21 16 16 16 17 18 19 20 21 22 23 18 18 18 19 20 21 22 23 24 25 
